<?xml version="1.0" encoding="UTF-8"?>
<!DOCTYPE svg PUBLIC "-//W3C//DTD SVG 1.0//EN" "http://www.w3.org/TR/2001/REC-SVG-20010904/DTD/svg10.dtd">
<svg fill-opacity="1" xmlns:xlink="http://www.w3.org/1999/xlink" color-rendering="auto" color-interpolation="auto" text-rendering="auto" stroke="black" stroke-linecap="square" stroke-miterlimit="10" shape-rendering="auto" stroke-opacity="1" fill="black" stroke-dasharray="none" font-weight="normal" stroke-width="1" xmlns="http://www.w3.org/2000/svg" font-family="'Dialog'" font-style="normal" stroke-linejoin="miter" font-size="12" stroke-dashoffset="0" image-rendering="auto">
  <!--Unicode Character 'RIGHT-FACING ARMENIAN ETERNITY SIGN' (U+058D)-->
  <defs id="genericDefs"/>
  <g>
    <g>
      <path d="M85.25 317.3839 Q80.0625 330.6183 68.9688 337.8214 Q57.8906 345.0245 44.9219 345.0245 Q34.8438 345.0245 25.9219 340.6964 Q30.5312 350.4933 38.7344 355.9776 Q46.9375 361.4464 56.1562 361.4464 Q62.2031 361.4464 67.9688 358.712 Q73.7344 355.962 78.3281 351.6495 Q82.9375 347.3214 85.6719 341.8526 Q88.4219 336.3839 88.4219 331.1964 Q88.4219 327.7433 87.5469 324.2901 Q86.6875 320.837 85.25 317.3839 ZM75.75 311.3214 Q64.2188 317.087 53.2812 317.087 Q40.6094 317.087 30.0938 310.0401 Q19.5781 302.9776 14.4062 289.4464 Q12.0938 295.4933 12.0938 301.5401 Q12.0938 308.4464 14.6875 314.3526 Q17.2812 320.2589 21.7344 324.587 Q26.2031 328.8995 32.1094 331.4933 Q38.0156 334.087 44.6406 334.087 Q55.5781 334.087 64.0781 327.7589 Q72.5781 321.4151 75.75 311.3214 ZM115.4844 339.5558 Q115.4844 328.6026 109 320.1183 Q102.5312 311.6183 92.4531 308.4464 Q95.6094 314.212 96.9062 319.837 Q98.2031 325.4464 98.2031 331.1964 Q98.2031 343.8683 91.2969 354.3839 Q84.3906 364.8995 70.8438 369.7901 Q76.8906 372.1026 82.9375 372.1026 Q88.9844 372.1026 92.875 370.3683 Q96.7656 368.6339 99.3594 366.7745 Q101.9531 364.8995 103.6719 363.1808 Q105.4062 361.4464 107.1406 361.4464 Q115.4844 352.2276 115.4844 339.5558 ZM66.8125 304.1339 Q53.5625 298.9464 46.3594 287.8683 Q39.1719 276.7745 39.1719 263.8058 Q39.1719 254.0089 43.4844 244.5089 Q33.7031 249.1183 28.2188 257.4776 Q22.75 265.8214 22.75 275.0401 Q22.75 281.3839 25.625 287.1495 Q28.5156 292.8995 32.8281 297.3683 Q37.1562 301.8214 42.625 304.5558 Q48.0938 307.2901 53.2812 307.2901 Q59.6094 307.2901 66.8125 304.1339 ZM132.7656 305.2745 Q127.5781 300.1026 122.3906 297.9464 Q117.2188 295.7745 112.3125 295.7745 Q108.8594 295.7745 105.5469 296.6495 Q102.2344 297.5089 98.7812 298.9464 Q111.75 304.1339 119.0938 315.3683 Q126.4375 326.587 126.4375 339.5558 Q126.4375 349.6339 122.1094 358.5558 Q131.9062 353.9464 137.2344 345.6026 Q142.5625 337.2433 142.5625 328.0245 Q142.5625 322.2745 140.25 316.3683 Q137.9531 310.462 132.7656 305.2745 ZM94.75 233.2745 Q88.7031 230.9776 82.9375 230.9776 Q76.0312 230.9776 69.9844 233.5714 Q63.9375 236.1651 59.6094 240.4933 Q55.2969 244.8058 52.7031 250.712 Q50.1094 256.6026 50.1094 263.5245 Q50.1094 274.462 56.5938 282.962 Q63.0781 291.462 73.1562 294.6183 Q67.1094 283.3995 67.1094 271.8683 Q67.1094 259.1964 74.1562 248.837 Q81.2188 238.462 94.75 233.2745 ZM153.5 301.5401 Q153.5 294.9151 150.9062 289.0089 Q148.3125 283.1026 144 278.6495 Q139.6875 274.1808 133.7812 271.587 Q127.875 268.9933 120.9531 268.9933 Q110.0156 268.9933 101.5156 275.337 Q93.0312 281.6651 89.8594 291.7433 Q100.7969 285.9776 112.0312 285.9776 Q124.9844 285.9776 135.5 293.0401 Q146.0156 300.1026 151.2031 313.6339 Q153.5 307.587 153.5 301.5401 ZM139.6875 262.3683 Q135.0781 252.5714 126.8594 247.1026 Q118.6562 241.6339 109.4375 241.6339 Q103.3906 241.6339 97.4844 244.3683 Q91.5781 247.1026 87.1094 251.5714 Q82.6562 256.0245 79.9219 261.3526 Q77.1875 266.6808 77.1875 271.8683 Q77.1875 278.4933 80.3594 285.6964 Q85.5312 272.7433 96.625 265.3995 Q107.7188 258.0558 120.6719 258.0558 Q130.4688 258.0558 139.6875 262.3683 ZM164.4531 301.5401 Q164.4531 318.2433 153.5 330.0558 Q152.9219 338.1183 149.3281 345.6026 Q145.7344 353.087 139.9688 358.8526 Q134.2031 364.6026 126.8594 368.212 Q119.5156 371.8058 111.4531 372.3839 Q105.7031 377.2745 98.5 380.1651 Q91.2969 383.0401 82.9375 383.0401 Q74.5938 383.0401 67.25 380.1651 Q59.9062 377.2745 54.1406 372.3839 Q46.0781 371.8058 38.7344 368.212 Q31.3906 364.6026 25.625 358.8526 Q19.875 353.087 16.2656 345.6026 Q12.6719 338.1183 12.0938 330.0558 Q1.1562 318.2433 1.1562 301.5401 Q1.1562 293.1808 4.0312 285.9933 Q6.9062 278.7901 12.0938 273.0245 Q12.6719 264.962 16.2656 257.4776 Q19.875 249.9776 25.625 244.2276 Q31.3906 238.462 38.7344 234.8683 Q46.0781 231.2589 54.1406 230.6808 Q59.9062 225.7901 67.25 222.9151 Q74.5938 220.0245 82.9375 220.0245 Q91.2969 220.0245 98.5 222.9151 Q105.7031 225.7901 111.4531 230.6808 Q119.5156 231.2589 126.8594 234.8683 Q134.2031 238.462 139.9688 244.2276 Q145.7344 249.9776 149.3281 257.4776 Q152.9219 264.962 153.5 273.0245 Q164.4531 284.837 164.4531 301.5401 Z" stroke="none"/>
    </g>
  </g>
</svg>